<mxfile host="Electron" agent="Mozilla/5.0 (Windows NT 10.0; Win64; x64) AppleWebKit/537.36 (KHTML, like Gecko) draw.io/26.0.9 Chrome/128.0.6613.186 Electron/32.2.5 Safari/537.36" version="26.0.9">
  <diagram id="C5RBs43oDa-KdzZeNtuy" name="Page-1">
    <mxGraphModel dx="2922" dy="2815" grid="0" gridSize="10" guides="1" tooltips="1" connect="1" arrows="1" fold="1" page="1" pageScale="1" pageWidth="827" pageHeight="1169" math="0" shadow="0">
      <root>
        <mxCell id="WIyWlLk6GJQsqaUBKTNV-0" />
        <mxCell id="WIyWlLk6GJQsqaUBKTNV-1" parent="WIyWlLk6GJQsqaUBKTNV-0" />
        <mxCell id="BdjOSIE1ZlerIC6Gjbdh-4" value="Map" style="swimlane;fontStyle=1;align=center;verticalAlign=top;childLayout=stackLayout;horizontal=1;startSize=26;horizontalStack=0;resizeParent=1;resizeParentMax=0;resizeLast=0;collapsible=1;marginBottom=0;whiteSpace=wrap;html=1;" parent="WIyWlLk6GJQsqaUBKTNV-1" vertex="1">
          <mxGeometry x="1001" y="-927" width="278" height="190" as="geometry" />
        </mxCell>
        <mxCell id="BdjOSIE1ZlerIC6Gjbdh-17" value="- height: int" style="text;align=left;verticalAlign=top;spacingLeft=4;spacingRight=4;overflow=hidden;rotatable=0;points=[[0,0.5],[1,0.5]];portConstraint=eastwest;whiteSpace=wrap;html=1;" parent="BdjOSIE1ZlerIC6Gjbdh-4" vertex="1">
          <mxGeometry y="26" width="278" height="26" as="geometry" />
        </mxCell>
        <mxCell id="BdjOSIE1ZlerIC6Gjbdh-58" value="- width: int" style="text;align=left;verticalAlign=top;spacingLeft=4;spacingRight=4;overflow=hidden;rotatable=0;points=[[0,0.5],[1,0.5]];portConstraint=eastwest;whiteSpace=wrap;html=1;" parent="BdjOSIE1ZlerIC6Gjbdh-4" vertex="1">
          <mxGeometry y="52" width="278" height="26" as="geometry" />
        </mxCell>
        <mxCell id="gjHX_R62zOp6Vwz3K7VU-9" value="- grid[height][width]: Cell[][]" style="text;align=left;verticalAlign=top;spacingLeft=4;spacingRight=4;overflow=hidden;rotatable=0;points=[[0,0.5],[1,0.5]];portConstraint=eastwest;whiteSpace=wrap;html=1;" parent="BdjOSIE1ZlerIC6Gjbdh-4" vertex="1">
          <mxGeometry y="78" width="278" height="26" as="geometry" />
        </mxCell>
        <mxCell id="BdjOSIE1ZlerIC6Gjbdh-6" value="" style="line;strokeWidth=1;align=left;verticalAlign=middle;spacingTop=-1;spacingLeft=3;spacingRight=3;rotatable=0;labelPosition=right;points=[];portConstraint=eastwest;" parent="BdjOSIE1ZlerIC6Gjbdh-4" vertex="1">
          <mxGeometry y="104" width="278" height="8" as="geometry" />
        </mxCell>
        <mxCell id="6NrvAYaBloMerTwjyqQH-0" value="+ cellNotEmpty(int x, int y): boolean&lt;div&gt;&lt;br&gt;&lt;/div&gt;" style="text;align=left;verticalAlign=top;spacingLeft=4;spacingRight=4;overflow=hidden;rotatable=0;points=[[0,0.5],[1,0.5]];portConstraint=eastwest;whiteSpace=wrap;html=1;" parent="BdjOSIE1ZlerIC6Gjbdh-4" vertex="1">
          <mxGeometry y="112" width="278" height="26" as="geometry" />
        </mxCell>
        <mxCell id="BAlonrOyO3S9iq8skjWO-0" value="+ getCellType(int x, int y): String" style="text;align=left;verticalAlign=top;spacingLeft=4;spacingRight=4;overflow=hidden;rotatable=0;points=[[0,0.5],[1,0.5]];portConstraint=eastwest;whiteSpace=wrap;html=1;" parent="BdjOSIE1ZlerIC6Gjbdh-4" vertex="1">
          <mxGeometry y="138" width="278" height="26" as="geometry" />
        </mxCell>
        <mxCell id="BAlonrOyO3S9iq8skjWO-1" value="+ toString(): String" style="text;align=left;verticalAlign=top;spacingLeft=4;spacingRight=4;overflow=hidden;rotatable=0;points=[[0,0.5],[1,0.5]];portConstraint=eastwest;whiteSpace=wrap;html=1;" parent="BdjOSIE1ZlerIC6Gjbdh-4" vertex="1">
          <mxGeometry y="164" width="278" height="26" as="geometry" />
        </mxCell>
        <mxCell id="BdjOSIE1ZlerIC6Gjbdh-8" value="Snake" style="swimlane;fontStyle=1;align=center;verticalAlign=top;childLayout=stackLayout;horizontal=1;startSize=26;horizontalStack=0;resizeParent=1;resizeParentMax=0;resizeLast=0;collapsible=1;marginBottom=0;whiteSpace=wrap;html=1;" parent="WIyWlLk6GJQsqaUBKTNV-1" vertex="1">
          <mxGeometry x="433" y="-519" width="160" height="138" as="geometry" />
        </mxCell>
        <mxCell id="BdjOSIE1ZlerIC6Gjbdh-9" value="- snake: ArrayList&amp;lt;Cell&amp;gt;" style="text;align=left;verticalAlign=top;spacingLeft=4;spacingRight=4;overflow=hidden;rotatable=0;points=[[0,0.5],[1,0.5]];portConstraint=eastwest;whiteSpace=wrap;html=1;" parent="BdjOSIE1ZlerIC6Gjbdh-8" vertex="1">
          <mxGeometry y="26" width="160" height="26" as="geometry" />
        </mxCell>
        <mxCell id="BdjOSIE1ZlerIC6Gjbdh-60" value="- direction: Direction" style="text;align=left;verticalAlign=top;spacingLeft=4;spacingRight=4;overflow=hidden;rotatable=0;points=[[0,0.5],[1,0.5]];portConstraint=eastwest;whiteSpace=wrap;html=1;" parent="BdjOSIE1ZlerIC6Gjbdh-8" vertex="1">
          <mxGeometry y="52" width="160" height="26" as="geometry" />
        </mxCell>
        <mxCell id="BdjOSIE1ZlerIC6Gjbdh-10" value="" style="line;strokeWidth=1;align=left;verticalAlign=middle;spacingTop=-1;spacingLeft=3;spacingRight=3;rotatable=0;labelPosition=right;points=[];portConstraint=eastwest;" parent="BdjOSIE1ZlerIC6Gjbdh-8" vertex="1">
          <mxGeometry y="78" width="160" height="8" as="geometry" />
        </mxCell>
        <mxCell id="BdjOSIE1ZlerIC6Gjbdh-61" value="+ move(char input)" style="text;align=left;verticalAlign=top;spacingLeft=4;spacingRight=4;overflow=hidden;rotatable=0;points=[[0,0.5],[1,0.5]];portConstraint=eastwest;whiteSpace=wrap;html=1;" parent="BdjOSIE1ZlerIC6Gjbdh-8" vertex="1">
          <mxGeometry y="86" width="160" height="26" as="geometry" />
        </mxCell>
        <mxCell id="BdjOSIE1ZlerIC6Gjbdh-62" value="+ grow(char input)" style="text;align=left;verticalAlign=top;spacingLeft=4;spacingRight=4;overflow=hidden;rotatable=0;points=[[0,0.5],[1,0.5]];portConstraint=eastwest;whiteSpace=wrap;html=1;" parent="BdjOSIE1ZlerIC6Gjbdh-8" vertex="1">
          <mxGeometry y="112" width="160" height="26" as="geometry" />
        </mxCell>
        <mxCell id="BdjOSIE1ZlerIC6Gjbdh-18" value="Direction" style="swimlane;fontStyle=1;align=center;verticalAlign=top;childLayout=stackLayout;horizontal=1;startSize=26;horizontalStack=0;resizeParent=1;resizeParentMax=0;resizeLast=0;collapsible=1;marginBottom=0;whiteSpace=wrap;html=1;" parent="WIyWlLk6GJQsqaUBKTNV-1" vertex="1">
          <mxGeometry x="123" y="-519" width="160" height="138" as="geometry" />
        </mxCell>
        <mxCell id="BdjOSIE1ZlerIC6Gjbdh-19" value="+ UP: char" style="text;align=left;verticalAlign=top;spacingLeft=4;spacingRight=4;overflow=hidden;rotatable=0;points=[[0,0.5],[1,0.5]];portConstraint=eastwest;whiteSpace=wrap;html=1;" parent="BdjOSIE1ZlerIC6Gjbdh-18" vertex="1">
          <mxGeometry y="26" width="160" height="26" as="geometry" />
        </mxCell>
        <mxCell id="BdjOSIE1ZlerIC6Gjbdh-24" value="+ DOWN: char" style="text;align=left;verticalAlign=top;spacingLeft=4;spacingRight=4;overflow=hidden;rotatable=0;points=[[0,0.5],[1,0.5]];portConstraint=eastwest;whiteSpace=wrap;html=1;" parent="BdjOSIE1ZlerIC6Gjbdh-18" vertex="1">
          <mxGeometry y="52" width="160" height="26" as="geometry" />
        </mxCell>
        <mxCell id="BdjOSIE1ZlerIC6Gjbdh-25" value="+ LEFT: char" style="text;align=left;verticalAlign=top;spacingLeft=4;spacingRight=4;overflow=hidden;rotatable=0;points=[[0,0.5],[1,0.5]];portConstraint=eastwest;whiteSpace=wrap;html=1;" parent="BdjOSIE1ZlerIC6Gjbdh-18" vertex="1">
          <mxGeometry y="78" width="160" height="26" as="geometry" />
        </mxCell>
        <mxCell id="BdjOSIE1ZlerIC6Gjbdh-20" value="+ RIGHT: char" style="text;align=left;verticalAlign=top;spacingLeft=4;spacingRight=4;overflow=hidden;rotatable=0;points=[[0,0.5],[1,0.5]];portConstraint=eastwest;whiteSpace=wrap;html=1;" parent="BdjOSIE1ZlerIC6Gjbdh-18" vertex="1">
          <mxGeometry y="104" width="160" height="26" as="geometry" />
        </mxCell>
        <mxCell id="BdjOSIE1ZlerIC6Gjbdh-21" value="" style="line;strokeWidth=1;align=left;verticalAlign=middle;spacingTop=-1;spacingLeft=3;spacingRight=3;rotatable=0;labelPosition=right;points=[];portConstraint=eastwest;" parent="BdjOSIE1ZlerIC6Gjbdh-18" vertex="1">
          <mxGeometry y="130" width="160" height="8" as="geometry" />
        </mxCell>
        <mxCell id="BdjOSIE1ZlerIC6Gjbdh-26" value="Game" style="swimlane;fontStyle=1;align=center;verticalAlign=top;childLayout=stackLayout;horizontal=1;startSize=26;horizontalStack=0;resizeParent=1;resizeParentMax=0;resizeLast=0;collapsible=1;marginBottom=0;whiteSpace=wrap;html=1;" parent="WIyWlLk6GJQsqaUBKTNV-1" vertex="1">
          <mxGeometry x="555" y="-926" width="202" height="294" as="geometry" />
        </mxCell>
        <mxCell id="BdjOSIE1ZlerIC6Gjbdh-27" value="- nbOfFood: int" style="text;align=left;verticalAlign=top;spacingLeft=4;spacingRight=4;overflow=hidden;rotatable=0;points=[[0,0.5],[1,0.5]];portConstraint=eastwest;whiteSpace=wrap;html=1;" parent="BdjOSIE1ZlerIC6Gjbdh-26" vertex="1">
          <mxGeometry y="26" width="202" height="26" as="geometry" />
        </mxCell>
        <mxCell id="BdjOSIE1ZlerIC6Gjbdh-28" value="- nbOfObstacle: int" style="text;align=left;verticalAlign=top;spacingLeft=4;spacingRight=4;overflow=hidden;rotatable=0;points=[[0,0.5],[1,0.5]];portConstraint=eastwest;whiteSpace=wrap;html=1;" parent="BdjOSIE1ZlerIC6Gjbdh-26" vertex="1">
          <mxGeometry y="52" width="202" height="26" as="geometry" />
        </mxCell>
        <mxCell id="BdjOSIE1ZlerIC6Gjbdh-70" value="- activeMap: Map" style="text;align=left;verticalAlign=top;spacingLeft=4;spacingRight=4;overflow=hidden;rotatable=0;points=[[0,0.5],[1,0.5]];portConstraint=eastwest;whiteSpace=wrap;html=1;" parent="BdjOSIE1ZlerIC6Gjbdh-26" vertex="1">
          <mxGeometry y="78" width="202" height="26" as="geometry" />
        </mxCell>
        <mxCell id="BdjOSIE1ZlerIC6Gjbdh-69" value="- activeSnake: Snake" style="text;align=left;verticalAlign=top;spacingLeft=4;spacingRight=4;overflow=hidden;rotatable=0;points=[[0,0.5],[1,0.5]];portConstraint=eastwest;whiteSpace=wrap;html=1;" parent="BdjOSIE1ZlerIC6Gjbdh-26" vertex="1">
          <mxGeometry y="104" width="202" height="26" as="geometry" />
        </mxCell>
        <mxCell id="BdjOSIE1ZlerIC6Gjbdh-64" value="- activeItems: List&amp;lt;Cell&amp;gt;" style="text;align=left;verticalAlign=top;spacingLeft=4;spacingRight=4;overflow=hidden;rotatable=0;points=[[0,0.5],[1,0.5]];portConstraint=eastwest;whiteSpace=wrap;html=1;" parent="BdjOSIE1ZlerIC6Gjbdh-26" vertex="1">
          <mxGeometry y="130" width="202" height="26" as="geometry" />
        </mxCell>
        <mxCell id="BdjOSIE1ZlerIC6Gjbdh-29" value="" style="line;strokeWidth=1;align=left;verticalAlign=middle;spacingTop=-1;spacingLeft=3;spacingRight=3;rotatable=0;labelPosition=right;points=[];portConstraint=eastwest;" parent="BdjOSIE1ZlerIC6Gjbdh-26" vertex="1">
          <mxGeometry y="156" width="202" height="8" as="geometry" />
        </mxCell>
        <mxCell id="BdjOSIE1ZlerIC6Gjbdh-30" value="+ play()" style="text;align=left;verticalAlign=top;spacingLeft=4;spacingRight=4;overflow=hidden;rotatable=0;points=[[0,0.5],[1,0.5]];portConstraint=eastwest;whiteSpace=wrap;html=1;" parent="BdjOSIE1ZlerIC6Gjbdh-26" vertex="1">
          <mxGeometry y="164" width="202" height="26" as="geometry" />
        </mxCell>
        <mxCell id="BdjOSIE1ZlerIC6Gjbdh-11" value="+ checkCollision(char input)" style="text;align=left;verticalAlign=top;spacingLeft=4;spacingRight=4;overflow=hidden;rotatable=0;points=[[0,0.5],[1,0.5]];portConstraint=eastwest;whiteSpace=wrap;html=1;" parent="BdjOSIE1ZlerIC6Gjbdh-26" vertex="1">
          <mxGeometry y="190" width="202" height="26" as="geometry" />
        </mxCell>
        <mxCell id="BdjOSIE1ZlerIC6Gjbdh-67" value="+ endGame(boolean state)" style="text;align=left;verticalAlign=top;spacingLeft=4;spacingRight=4;overflow=hidden;rotatable=0;points=[[0,0.5],[1,0.5]];portConstraint=eastwest;whiteSpace=wrap;html=1;" parent="BdjOSIE1ZlerIC6Gjbdh-26" vertex="1">
          <mxGeometry y="216" width="202" height="26" as="geometry" />
        </mxCell>
        <mxCell id="BAlonrOyO3S9iq8skjWO-8" value="+ noFoodLeft(): boolean" style="text;align=left;verticalAlign=top;spacingLeft=4;spacingRight=4;overflow=hidden;rotatable=0;points=[[0,0.5],[1,0.5]];portConstraint=eastwest;whiteSpace=wrap;html=1;" parent="BdjOSIE1ZlerIC6Gjbdh-26" vertex="1">
          <mxGeometry y="242" width="202" height="26" as="geometry" />
        </mxCell>
        <mxCell id="BAlonrOyO3S9iq8skjWO-9" value="+ handleInput()" style="text;align=left;verticalAlign=top;spacingLeft=4;spacingRight=4;overflow=hidden;rotatable=0;points=[[0,0.5],[1,0.5]];portConstraint=eastwest;whiteSpace=wrap;html=1;" parent="BdjOSIE1ZlerIC6Gjbdh-26" vertex="1">
          <mxGeometry y="268" width="202" height="26" as="geometry" />
        </mxCell>
        <mxCell id="BdjOSIE1ZlerIC6Gjbdh-83" value="" style="endArrow=diamondThin;endFill=1;endSize=24;html=1;rounded=0;exitX=0;exitY=0;exitDx=0;exitDy=0;entryX=0.75;entryY=0;entryDx=0;entryDy=0;" parent="WIyWlLk6GJQsqaUBKTNV-1" source="Aa71tJGsUNVY9X4nbh6g-4" target="BdjOSIE1ZlerIC6Gjbdh-8" edge="1">
          <mxGeometry width="160" relative="1" as="geometry">
            <mxPoint x="806" y="-397.0000000000002" as="sourcePoint" />
            <mxPoint x="681" y="-464" as="targetPoint" />
            <Array as="points">
              <mxPoint x="1114" y="-554" />
              <mxPoint x="553" y="-554" />
            </Array>
          </mxGeometry>
        </mxCell>
        <mxCell id="6NrvAYaBloMerTwjyqQH-10" value="" style="endArrow=block;startArrow=block;endFill=1;startFill=1;html=1;rounded=0;entryX=0;entryY=0.5;entryDx=0;entryDy=0;exitX=0.5;exitY=0;exitDx=0;exitDy=0;" parent="WIyWlLk6GJQsqaUBKTNV-1" source="BdjOSIE1ZlerIC6Gjbdh-8" target="gjHX_R62zOp6Vwz3K7VU-9" edge="1">
          <mxGeometry width="160" relative="1" as="geometry">
            <mxPoint x="513" y="-549" as="sourcePoint" />
            <mxPoint x="868" y="-549" as="targetPoint" />
            <Array as="points">
              <mxPoint x="515" y="-605" />
              <mxPoint x="844" y="-606" />
              <mxPoint x="846" y="-836" />
            </Array>
          </mxGeometry>
        </mxCell>
        <mxCell id="6NrvAYaBloMerTwjyqQH-12" value="" style="endArrow=block;startArrow=block;endFill=1;startFill=1;html=1;rounded=0;entryX=1;entryY=0.5;entryDx=0;entryDy=0;exitX=0;exitY=0.5;exitDx=0;exitDy=0;" parent="WIyWlLk6GJQsqaUBKTNV-1" source="BdjOSIE1ZlerIC6Gjbdh-60" target="BdjOSIE1ZlerIC6Gjbdh-24" edge="1">
          <mxGeometry width="160" relative="1" as="geometry">
            <mxPoint x="533" y="-499" as="sourcePoint" />
            <mxPoint x="1022" y="-975" as="targetPoint" />
            <Array as="points" />
          </mxGeometry>
        </mxCell>
        <mxCell id="6NrvAYaBloMerTwjyqQH-13" value="" style="endArrow=block;startArrow=block;endFill=1;startFill=1;html=1;rounded=0;exitX=0.139;exitY=0.031;exitDx=0;exitDy=0;entryX=1;entryY=0.5;entryDx=0;entryDy=0;exitPerimeter=0;" parent="WIyWlLk6GJQsqaUBKTNV-1" source="Aa71tJGsUNVY9X4nbh6g-4" target="BdjOSIE1ZlerIC6Gjbdh-27" edge="1">
          <mxGeometry width="160" relative="1" as="geometry">
            <mxPoint x="542" y="-369" as="sourcePoint" />
            <mxPoint x="765" y="-922" as="targetPoint" />
            <Array as="points">
              <mxPoint x="1154" y="-614" />
              <mxPoint x="926" y="-614" />
              <mxPoint x="926" y="-887" />
            </Array>
          </mxGeometry>
        </mxCell>
        <mxCell id="Aa71tJGsUNVY9X4nbh6g-4" value="abstract Cell" style="swimlane;fontStyle=1;align=center;verticalAlign=top;childLayout=stackLayout;horizontal=1;startSize=26;horizontalStack=0;resizeParent=1;resizeParentMax=0;resizeLast=0;collapsible=1;marginBottom=0;whiteSpace=wrap;html=1;" parent="WIyWlLk6GJQsqaUBKTNV-1" vertex="1">
          <mxGeometry x="1114" y="-472" width="289" height="138" as="geometry" />
        </mxCell>
        <mxCell id="Aa71tJGsUNVY9X4nbh6g-5" value="- x: int" style="text;align=left;verticalAlign=top;spacingLeft=4;spacingRight=4;overflow=hidden;rotatable=0;points=[[0,0.5],[1,0.5]];portConstraint=eastwest;whiteSpace=wrap;html=1;" parent="Aa71tJGsUNVY9X4nbh6g-4" vertex="1">
          <mxGeometry y="26" width="289" height="26" as="geometry" />
        </mxCell>
        <mxCell id="Aa71tJGsUNVY9X4nbh6g-9" value="- y: int" style="text;align=left;verticalAlign=top;spacingLeft=4;spacingRight=4;overflow=hidden;rotatable=0;points=[[0,0.5],[1,0.5]];portConstraint=eastwest;whiteSpace=wrap;html=1;" parent="Aa71tJGsUNVY9X4nbh6g-4" vertex="1">
          <mxGeometry y="52" width="289" height="26" as="geometry" />
        </mxCell>
        <mxCell id="Aa71tJGsUNVY9X4nbh6g-6" value="" style="line;strokeWidth=1;align=left;verticalAlign=middle;spacingTop=-1;spacingLeft=3;spacingRight=3;rotatable=0;labelPosition=right;points=[];portConstraint=eastwest;" parent="Aa71tJGsUNVY9X4nbh6g-4" vertex="1">
          <mxGeometry y="78" width="289" height="8" as="geometry" />
        </mxCell>
        <mxCell id="BAlonrOyO3S9iq8skjWO-2" value="+ checkOverlap(Cell cell): boolean&lt;div&gt;&lt;br&gt;&lt;/div&gt;" style="text;align=left;verticalAlign=top;spacingLeft=4;spacingRight=4;overflow=hidden;rotatable=0;points=[[0,0.5],[1,0.5]];portConstraint=eastwest;whiteSpace=wrap;html=1;" parent="Aa71tJGsUNVY9X4nbh6g-4" vertex="1">
          <mxGeometry y="86" width="289" height="26" as="geometry" />
        </mxCell>
        <mxCell id="BAlonrOyO3S9iq8skjWO-3" value="+ equals(Cell cell): boolean" style="text;align=left;verticalAlign=top;spacingLeft=4;spacingRight=4;overflow=hidden;rotatable=0;points=[[0,0.5],[1,0.5]];portConstraint=eastwest;whiteSpace=wrap;html=1;" parent="Aa71tJGsUNVY9X4nbh6g-4" vertex="1">
          <mxGeometry y="112" width="289" height="26" as="geometry" />
        </mxCell>
        <mxCell id="Aa71tJGsUNVY9X4nbh6g-10" value="Empty" style="swimlane;fontStyle=1;align=center;verticalAlign=top;childLayout=stackLayout;horizontal=1;startSize=26;horizontalStack=0;resizeParent=1;resizeParentMax=0;resizeLast=0;collapsible=1;marginBottom=0;whiteSpace=wrap;html=1;" parent="WIyWlLk6GJQsqaUBKTNV-1" vertex="1">
          <mxGeometry x="847" y="-239" width="160" height="60" as="geometry" />
        </mxCell>
        <mxCell id="Aa71tJGsUNVY9X4nbh6g-13" value="" style="line;strokeWidth=1;align=left;verticalAlign=middle;spacingTop=-1;spacingLeft=3;spacingRight=3;rotatable=0;labelPosition=right;points=[];portConstraint=eastwest;" parent="Aa71tJGsUNVY9X4nbh6g-10" vertex="1">
          <mxGeometry y="26" width="160" height="8" as="geometry" />
        </mxCell>
        <mxCell id="BAlonrOyO3S9iq8skjWO-4" value="+ toString(): String" style="text;align=left;verticalAlign=top;spacingLeft=4;spacingRight=4;overflow=hidden;rotatable=0;points=[[0,0.5],[1,0.5]];portConstraint=eastwest;whiteSpace=wrap;html=1;" parent="Aa71tJGsUNVY9X4nbh6g-10" vertex="1">
          <mxGeometry y="34" width="160" height="26" as="geometry" />
        </mxCell>
        <mxCell id="Aa71tJGsUNVY9X4nbh6g-14" value="Food" style="swimlane;fontStyle=1;align=center;verticalAlign=top;childLayout=stackLayout;horizontal=1;startSize=26;horizontalStack=0;resizeParent=1;resizeParentMax=0;resizeLast=0;collapsible=1;marginBottom=0;whiteSpace=wrap;html=1;" parent="WIyWlLk6GJQsqaUBKTNV-1" vertex="1">
          <mxGeometry x="1064" y="-239" width="160" height="60" as="geometry" />
        </mxCell>
        <mxCell id="Aa71tJGsUNVY9X4nbh6g-15" value="" style="line;strokeWidth=1;align=left;verticalAlign=middle;spacingTop=-1;spacingLeft=3;spacingRight=3;rotatable=0;labelPosition=right;points=[];portConstraint=eastwest;" parent="Aa71tJGsUNVY9X4nbh6g-14" vertex="1">
          <mxGeometry y="26" width="160" height="8" as="geometry" />
        </mxCell>
        <mxCell id="BAlonrOyO3S9iq8skjWO-5" value="+ toString(): String" style="text;align=left;verticalAlign=top;spacingLeft=4;spacingRight=4;overflow=hidden;rotatable=0;points=[[0,0.5],[1,0.5]];portConstraint=eastwest;whiteSpace=wrap;html=1;" parent="Aa71tJGsUNVY9X4nbh6g-14" vertex="1">
          <mxGeometry y="34" width="160" height="26" as="geometry" />
        </mxCell>
        <mxCell id="Aa71tJGsUNVY9X4nbh6g-16" value="SnakePart" style="swimlane;fontStyle=1;align=center;verticalAlign=top;childLayout=stackLayout;horizontal=1;startSize=26;horizontalStack=0;resizeParent=1;resizeParentMax=0;resizeLast=0;collapsible=1;marginBottom=0;whiteSpace=wrap;html=1;" parent="WIyWlLk6GJQsqaUBKTNV-1" vertex="1">
          <mxGeometry x="1505" y="-239" width="160" height="60" as="geometry" />
        </mxCell>
        <mxCell id="Aa71tJGsUNVY9X4nbh6g-17" value="" style="line;strokeWidth=1;align=left;verticalAlign=middle;spacingTop=-1;spacingLeft=3;spacingRight=3;rotatable=0;labelPosition=right;points=[];portConstraint=eastwest;" parent="Aa71tJGsUNVY9X4nbh6g-16" vertex="1">
          <mxGeometry y="26" width="160" height="8" as="geometry" />
        </mxCell>
        <mxCell id="BAlonrOyO3S9iq8skjWO-7" value="+ toString(): String" style="text;align=left;verticalAlign=top;spacingLeft=4;spacingRight=4;overflow=hidden;rotatable=0;points=[[0,0.5],[1,0.5]];portConstraint=eastwest;whiteSpace=wrap;html=1;" parent="Aa71tJGsUNVY9X4nbh6g-16" vertex="1">
          <mxGeometry y="34" width="160" height="26" as="geometry" />
        </mxCell>
        <mxCell id="Aa71tJGsUNVY9X4nbh6g-18" value="Obstacle" style="swimlane;fontStyle=1;align=center;verticalAlign=top;childLayout=stackLayout;horizontal=1;startSize=26;horizontalStack=0;resizeParent=1;resizeParentMax=0;resizeLast=0;collapsible=1;marginBottom=0;whiteSpace=wrap;html=1;" parent="WIyWlLk6GJQsqaUBKTNV-1" vertex="1">
          <mxGeometry x="1286" y="-239" width="160" height="60" as="geometry" />
        </mxCell>
        <mxCell id="Aa71tJGsUNVY9X4nbh6g-19" value="" style="line;strokeWidth=1;align=left;verticalAlign=middle;spacingTop=-1;spacingLeft=3;spacingRight=3;rotatable=0;labelPosition=right;points=[];portConstraint=eastwest;" parent="Aa71tJGsUNVY9X4nbh6g-18" vertex="1">
          <mxGeometry y="26" width="160" height="8" as="geometry" />
        </mxCell>
        <mxCell id="gjHX_R62zOp6Vwz3K7VU-3" value="+ toString(): String" style="text;align=left;verticalAlign=top;spacingLeft=4;spacingRight=4;overflow=hidden;rotatable=0;points=[[0,0.5],[1,0.5]];portConstraint=eastwest;whiteSpace=wrap;html=1;" parent="Aa71tJGsUNVY9X4nbh6g-18" vertex="1">
          <mxGeometry y="34" width="160" height="26" as="geometry" />
        </mxCell>
        <mxCell id="Aa71tJGsUNVY9X4nbh6g-20" value="" style="endArrow=block;endSize=16;endFill=0;html=1;rounded=0;exitX=0.438;exitY=-0.011;exitDx=0;exitDy=0;exitPerimeter=0;" parent="WIyWlLk6GJQsqaUBKTNV-1" source="Aa71tJGsUNVY9X4nbh6g-18" edge="1">
          <mxGeometry x="-0.4387" y="-106" width="160" relative="1" as="geometry">
            <mxPoint x="1355" y="-252" as="sourcePoint" />
            <mxPoint x="1254" y="-334" as="targetPoint" />
            <Array as="points">
              <mxPoint x="1356" y="-294" />
              <mxPoint x="1255" y="-295" />
            </Array>
            <mxPoint x="104" y="95" as="offset" />
          </mxGeometry>
        </mxCell>
        <mxCell id="Aa71tJGsUNVY9X4nbh6g-21" value="" style="endArrow=block;endSize=16;endFill=0;html=1;rounded=0;exitX=0.438;exitY=-0.011;exitDx=0;exitDy=0;exitPerimeter=0;" parent="WIyWlLk6GJQsqaUBKTNV-1" edge="1">
          <mxGeometry x="-0.4387" y="-106" width="160" relative="1" as="geometry">
            <mxPoint x="1590" y="-239" as="sourcePoint" />
            <mxPoint x="1254" y="-333" as="targetPoint" />
            <Array as="points">
              <mxPoint x="1590" y="-294" />
              <mxPoint x="1255" y="-295" />
            </Array>
            <mxPoint x="104" y="95" as="offset" />
          </mxGeometry>
        </mxCell>
        <mxCell id="Aa71tJGsUNVY9X4nbh6g-22" value="" style="endArrow=block;endSize=16;endFill=0;html=1;rounded=0;exitX=0.461;exitY=-0.003;exitDx=0;exitDy=0;exitPerimeter=0;" parent="WIyWlLk6GJQsqaUBKTNV-1" source="Aa71tJGsUNVY9X4nbh6g-10" edge="1">
          <mxGeometry x="-0.4387" y="-106" width="160" relative="1" as="geometry">
            <mxPoint x="1356" y="-239" as="sourcePoint" />
            <mxPoint x="1254" y="-334" as="targetPoint" />
            <Array as="points">
              <mxPoint x="920" y="-294" />
              <mxPoint x="1255" y="-295" />
            </Array>
            <mxPoint x="104" y="95" as="offset" />
          </mxGeometry>
        </mxCell>
        <mxCell id="Aa71tJGsUNVY9X4nbh6g-23" value="" style="endArrow=block;endSize=16;endFill=0;html=1;rounded=0;exitX=0.304;exitY=-0.025;exitDx=0;exitDy=0;exitPerimeter=0;" parent="WIyWlLk6GJQsqaUBKTNV-1" source="Aa71tJGsUNVY9X4nbh6g-14" edge="1">
          <mxGeometry x="-0.4387" y="-106" width="160" relative="1" as="geometry">
            <mxPoint x="1356" y="-239" as="sourcePoint" />
            <mxPoint x="1254" y="-334" as="targetPoint" />
            <Array as="points">
              <mxPoint x="1113" y="-295" />
              <mxPoint x="1255" y="-295" />
            </Array>
            <mxPoint x="104" y="95" as="offset" />
          </mxGeometry>
        </mxCell>
        <mxCell id="gjHX_R62zOp6Vwz3K7VU-0" value="" style="endArrow=diamondThin;endFill=1;endSize=24;html=1;rounded=0;exitX=0.25;exitY=0;exitDx=0;exitDy=0;entryX=0;entryY=0.5;entryDx=0;entryDy=0;" parent="WIyWlLk6GJQsqaUBKTNV-1" source="BdjOSIE1ZlerIC6Gjbdh-8" target="BdjOSIE1ZlerIC6Gjbdh-67" edge="1">
          <mxGeometry width="160" relative="1" as="geometry">
            <mxPoint x="816" y="-387" as="sourcePoint" />
            <mxPoint x="602" y="-348" as="targetPoint" />
            <Array as="points">
              <mxPoint x="473" y="-695" />
            </Array>
          </mxGeometry>
        </mxCell>
        <mxCell id="gjHX_R62zOp6Vwz3K7VU-5" value="" style="endArrow=diamondThin;endFill=1;endSize=24;html=1;rounded=0;entryX=1;entryY=0;entryDx=0;entryDy=0;exitX=0.25;exitY=0;exitDx=0;exitDy=0;" parent="WIyWlLk6GJQsqaUBKTNV-1" source="BdjOSIE1ZlerIC6Gjbdh-4" target="BdjOSIE1ZlerIC6Gjbdh-26" edge="1">
          <mxGeometry width="160" relative="1" as="geometry">
            <mxPoint x="1023" y="-935" as="sourcePoint" />
            <mxPoint x="743" y="-973" as="targetPoint" />
            <Array as="points">
              <mxPoint x="1071" y="-977" />
              <mxPoint x="757" y="-977" />
            </Array>
          </mxGeometry>
        </mxCell>
        <mxCell id="bCQ1opWmbhh3vQ8mi8Qb-1" value="" style="endArrow=diamondThin;endFill=1;endSize=24;html=1;rounded=0;entryX=1;entryY=0.5;entryDx=0;entryDy=0;exitX=0.365;exitY=-0.049;exitDx=0;exitDy=0;exitPerimeter=0;" parent="WIyWlLk6GJQsqaUBKTNV-1" target="BAlonrOyO3S9iq8skjWO-1" edge="1">
          <mxGeometry width="160" relative="1" as="geometry">
            <mxPoint x="1168.3699999999997" y="-472.00399999999996" as="sourcePoint" />
            <mxPoint x="1166.0049999999999" y="-704.1639999999998" as="targetPoint" />
            <Array as="points">
              <mxPoint x="1168" y="-613" />
              <mxPoint x="1410" y="-613" />
              <mxPoint x="1410" y="-750" />
            </Array>
          </mxGeometry>
        </mxCell>
        <mxCell id="pKKgxKeEwfDSkmkC7B26-0" value="" style="endArrow=block;endSize=16;endFill=0;html=1;rounded=0;exitX=0.438;exitY=-0.011;exitDx=0;exitDy=0;exitPerimeter=0;" parent="WIyWlLk6GJQsqaUBKTNV-1" edge="1">
          <mxGeometry x="-0.4387" y="-106" width="160" relative="1" as="geometry">
            <mxPoint x="1813" y="-239" as="sourcePoint" />
            <mxPoint x="1254" y="-334" as="targetPoint" />
            <Array as="points">
              <mxPoint x="1813" y="-294" />
              <mxPoint x="1254" y="-295" />
            </Array>
            <mxPoint x="104" y="95" as="offset" />
          </mxGeometry>
        </mxCell>
        <mxCell id="pKKgxKeEwfDSkmkC7B26-1" value="SnakeHead" style="swimlane;fontStyle=1;align=center;verticalAlign=top;childLayout=stackLayout;horizontal=1;startSize=26;horizontalStack=0;resizeParent=1;resizeParentMax=0;resizeLast=0;collapsible=1;marginBottom=0;whiteSpace=wrap;html=1;" parent="WIyWlLk6GJQsqaUBKTNV-1" vertex="1">
          <mxGeometry x="1728" y="-239" width="160" height="60" as="geometry" />
        </mxCell>
        <mxCell id="pKKgxKeEwfDSkmkC7B26-2" value="" style="line;strokeWidth=1;align=left;verticalAlign=middle;spacingTop=-1;spacingLeft=3;spacingRight=3;rotatable=0;labelPosition=right;points=[];portConstraint=eastwest;" parent="pKKgxKeEwfDSkmkC7B26-1" vertex="1">
          <mxGeometry y="26" width="160" height="8" as="geometry" />
        </mxCell>
        <mxCell id="BAlonrOyO3S9iq8skjWO-6" value="+ toString(): String" style="text;align=left;verticalAlign=top;spacingLeft=4;spacingRight=4;overflow=hidden;rotatable=0;points=[[0,0.5],[1,0.5]];portConstraint=eastwest;whiteSpace=wrap;html=1;" parent="pKKgxKeEwfDSkmkC7B26-1" vertex="1">
          <mxGeometry y="34" width="160" height="26" as="geometry" />
        </mxCell>
      </root>
    </mxGraphModel>
  </diagram>
</mxfile>
